<?xml version="1.0"?>
<svg xmlns="http://www.w3.org/2000/svg" xmlns:xlink="http://www.w3.org/1999/xlink" xmlns:svgjs="http://svgjs.com/svgjs" version="1.1" width="30" height="30" x="0" y="0" viewBox="0 0 384 384" style="enable-background:new 0 0 512 512" xml:space="preserve" class=""><g><path xmlns="http://www.w3.org/2000/svg" d="m362.667969 0h-341.335938c-11.753906 0-21.332031 9.578125-21.332031 21.332031v42.667969c0 11.753906 9.578125 21.332031 21.332031 21.332031h341.335938c11.753906 0 21.332031-9.578125 21.332031-21.332031v-42.667969c0-11.753906-9.578125-21.332031-21.332031-21.332031zm0 0" fill="#ffffff" data-original="#000000" style="" class=""/><path xmlns="http://www.w3.org/2000/svg" d="m362.667969 128h-341.335938c-11.753906 0-21.332031 9.578125-21.332031 21.332031v42.667969c0 11.753906 9.578125 21.332031 21.332031 21.332031h341.335938c11.753906 0 21.332031-9.578125 21.332031-21.332031v-42.667969c0-11.753906-9.578125-21.332031-21.332031-21.332031zm0 0" fill="#ffffff" data-original="#000000" style="" class=""/><path xmlns="http://www.w3.org/2000/svg" d="m362.667969 256h-341.335938c-11.753906 0-21.332031 9.578125-21.332031 21.332031v42.667969c0 11.753906 9.578125 21.332031 21.332031 21.332031h341.335938c11.753906 0 21.332031-9.578125 21.332031-21.332031v-42.667969c0-11.753906-9.578125-21.332031-21.332031-21.332031zm0 0" fill="#ffffff" data-original="#000000" style="" class=""/></g></svg>
